<?xml version="1.0" encoding="UTF-8" standalone="no"?>
<!-- Created with Inkscape (http://www.inkscape.org/) -->

<svg
   xmlns:dc="http://purl.org/dc/elements/1.1/"
   xmlns:cc="http://creativecommons.org/ns#"
   xmlns:rdf="http://www.w3.org/1999/02/22-rdf-syntax-ns#"
   xmlns:svg="http://www.w3.org/2000/svg"
   xmlns="http://www.w3.org/2000/svg"
   xmlns:sodipodi="http://sodipodi.sourceforge.net/DTD/sodipodi-0.dtd"
   xmlns:inkscape="http://www.inkscape.org/namespaces/inkscape"
   width="110.29424mm"
   height="36.025272mm"
   viewBox="0 0 110.29423 36.025272"
   version="1.1"
   id="svg8"
   sodipodi:docname="neuralink.svg"
   inkscape:version="0.92.4 (5da689c313, 2019-01-14)">
  <defs
     id="defs2" />
  <sodipodi:namedview
     id="base"
     pagecolor="#ffffff"
     bordercolor="#666666"
     borderopacity="1.0"
     inkscape:pageopacity="0.0"
     inkscape:pageshadow="2"
     inkscape:zoom="1.4142136"
     inkscape:cx="43.889247"
     inkscape:cy="53.523853"
     inkscape:document-units="mm"
     inkscape:current-layer="layer1"
     showgrid="false"
     inkscape:window-width="1920"
     inkscape:window-height="1017"
     inkscape:window-x="-8"
     inkscape:window-y="176"
     inkscape:window-maximized="1" />
  <metadata
     id="metadata5">
    <rdf:RDF>
      <cc:Work
         rdf:about="">
        <dc:format>image/svg+xml</dc:format>
        <dc:type
           rdf:resource="http://purl.org/dc/dcmitype/StillImage" />
      </cc:Work>
    </rdf:RDF>
  </metadata>
  <g
     inkscape:label="Layer 1"
     inkscape:groupmode="layer"
     id="layer1"
     transform="translate(-151.50333,-128.74896)">
    <g
       id="g5482"
       transform="translate(17.212157,-93.918512)">
      <g
         transform="matrix(0.26458333,0,0,0.26458333,-119.87302,171.22871)"
         id="g5439"
         style="fill:none;stroke:none;stroke-linecap:square;stroke-miterlimit:10" />
      <path
         id="path902"
         style="fill:#000000;fill-opacity:1;fill-rule:nonzero;stroke:none;stroke-width:0.13734937;stroke-linecap:square;stroke-miterlimit:10"
         d="m 241.41904,236.71265 -1.57375,-3.08074 -0.73776,0.76688 -0.49326,2.31386 h -1.51943 l 1.57375,-7.52554 h 1.51947 l -0.67297,3.22617 3.11198,-3.22617 h 1.95834 l -3.57391,3.53248 2.19451,3.99306 z m -8.70284,-0.003 -2.0112,-5.05522 -0.92189,5.05522 h -1.30895 l 1.35578,-7.49288 h 1.34681 l 1.95355,4.87531 0.8949,-4.87531 h 1.30898 l -1.35584,7.49288 z m -9.0156,-0.0224 1.50149,-7.50579 h 1.44968 l -1.50154,7.50579 z m -7.06366,-0.0499 1.59597,-7.38281 h 1.54083 l -1.29074,5.99921 h 3.0499 l -0.29461,1.3836 z m -22.03423,0.22308 q -1.33818,0 -2.07447,-0.70272 -0.73625,-0.70274 -0.73625,-1.91713 0,-0.28109 0.0492,-0.50509 l 0.85177,-4.50843 h 1.39496 l -0.8423,4.46451 q -0.0397,0.112 -0.0397,0.37113 0,0.6061 0.38232,0.99919 0.38423,0.39308 1.01452,0.39308 1.33625,0 1.6656,-1.7634 l 0.8536,-4.46451 h 1.40444 l -0.86117,4.49745 q -0.32938,1.6536 -1.08077,2.39586 -0.75141,0.74006 -1.9817,0.74006 z m 18.30641,-0.10313 -0.16324,-1.28345 h -2.74918 l -0.64368,1.28345 h -1.62325 l 3.89202,-7.5699 h 1.70956 l 1.0565,7.5699 z m -0.66431,-5.95839 -1.60446,3.25628 h 1.98919 z m -8.03357,5.89116 -0.80095,-2.66673 h -1.11625 l -0.52935,2.66673 h -1.4414 l 1.49294,-7.50772 h 2.89269 q 0.89419,0 1.49296,0.60238 0.59873,0.60237 0.59873,1.51473 0,1.0003 -0.5492,1.72139 -0.54721,0.72109 -1.3799,0.88817 l 0.93376,2.78105 z m -0.12094,-4.07374 q 0.56906,0 0.8823,-0.32537 0.31528,-0.32756 0.31528,-0.83541 0,-0.38253 -0.25979,-0.62436 -0.25771,-0.24183 -0.5928,-0.24183 h -1.4513 l -0.40645,2.02697 z m -19.81026,4.09011 1.46664,-7.57724 h 4.70773 l -0.28046,1.42003 h -3.28001 l -0.30969,1.60199 h 3.21185 l -0.28048,1.42004 h -3.2099 l -0.32917,1.71514 h 3.28001 l -0.26876,1.42004 z m -4.47482,-0.0221 -1.97516,-5.04704 -0.90541,5.04704 h -1.28553 l 1.33152,-7.48074 h 1.3227 l 1.9186,4.86741 0.87887,-4.86741 h 1.28556 l -1.33155,7.48074 z"
         inkscape:connector-curvature="0" />
    </g>
    <path
       id="path5412"
       style="fill:#000000;fill-opacity:1;stroke:none;stroke-width:0.26499999;stroke-linecap:butt;stroke-linejoin:miter;stroke-miterlimit:4;stroke-dasharray:none;stroke-opacity:1"
       d="m 151.50333,151.79978 h 31.34488 l -0.2397,-1.70426 h -26.86038 l 19.10497,-18.41508 c 2.61943,-2.61943 7.24533,-0.92319 8.00973,3.25359 1.37316,8.63142 2.46212,17.81806 3.62777,26.65429 0.60331,3.34935 4.1907,4.12679 6.31357,2.00392 l 13.34079,-13.48858 h -17.42013 l 0.23255,1.67431 h 13.19312 l -10.40466,10.48722 c -1.44795,1.44795 -3.1732,1.39699 -3.82612,-1.03973 l -3.63034,-27.0164 v 0 c -0.83426,-4.87133 -6.70725,-7.32661 -10.5822,-3.7827 z"
       inkscape:connector-curvature="0"
       sodipodi:nodetypes="cccccccccccccccccc" />
  </g>
</svg>
